<svg xmlns="http://www.w3.org/2000/svg" width="288" height="288">
  <path fill="#8A8C8E" d="M125.62 152.718c0 40.238 4.842 72.906-35.422 72.906s-72.906-32.668-72.906-72.906c0-40.27 32.643-72.919 72.906-72.919s35.422 32.649 35.422 72.919z"/>
  <path fill="#ADB0B2" d="M166.137 179.51c32.776-23.386 56.523-46.288 79.921-13.513 23.381 32.767 15.776 78.298-16.999 101.696-32.774 23.382-78.307 15.776-101.695-16.991-23.382-32.783 5.998-47.795 38.773-71.192z"/>
  <path fill="#F2F2F2" d="M168.268 120.462c-34.24-21.193-64.537-34.24-43.359-68.484 21.18-34.236 66.116-44.829 100.357-23.644 34.239 21.181 44.822 66.108 23.646 100.357-21.176 34.227-46.396 12.947-80.644-8.229z"/>
</svg>
