<svg xmlns="http://www.w3.org/2000/svg" xmlns:xlink="http://www.w3.org/1999/xlink" width="76" height="130" viewBox="0 0 76 130">
  <defs>
    <polygon id="clipboard-a" points="75.118 129.44 75.118 .069 0 .069 0 129.44 75.118 129.44"/>
    <polygon id="clipboard-c" points="0 129.65 75.118 129.65 75.118 .279 0 .279"/>
  </defs>
  <g fill="none" fill-rule="evenodd" transform="translate(.25 .19)">
    <g transform="translate(0 .21)">
      <mask id="clipboard-b" fill="#fff">
        <use xlink:href="#clipboard-a"/>
      </mask>
      <path fill="#000" d="M4.857075,20.036449 L27.1467,20.036449 L27.4122,21.5493014 C27.546075,22.3050882 28.110825,22.8345226 28.80945,22.8345226 L46.50795,22.8345226 C47.17395,22.8345226 47.77245,22.3050882 47.9052,21.5493014 L48.171825,20.036449 L70.46145,20.036449 L70.46145,124.070307 L4.857075,124.070307 L4.857075,20.036449 Z M37.626075,2.75438042 C38.557575,2.75438042 39.356325,3.6239828 39.356325,4.7212164 C39.356325,5.78008519 38.5902,6.68677356 37.626075,6.68677356 C36.660825,6.68677356 35.895825,5.81717117 35.895825,4.7212164 C35.929575,3.6239828 36.694575,2.75438042 37.626075,2.75438042 L37.626075,2.75438042 Z M2.229075,129.440102 L72.989325,129.440102 C74.1537,129.440102 75.11895,128.381233 75.11895,127.020561 L75.11895,17.086195 C75.11895,15.762609 74.18745,14.6666543 72.989325,14.6666543 L49.0032,14.6666543 L49.36995,12.4351011 C49.535325,11.4516831 48.87045,10.5066299 47.9727,10.5066299 L41.2857,10.5066299 L41.2857,4.30431879 C41.2857,1.96022883 39.621825,0.0688436382 37.5597,0.0688436382 C35.49645,0.0688436382 33.8337,1.96022883 33.8337,4.30431879 L33.8337,10.5066299 L27.1467,10.5066299 C26.247825,10.5066299 25.58295,11.4145971 25.74945,12.4351011 L26.115075,14.6666543 L2.12895,14.6666543 C0.964575,14.6666543 0.00045,15.7255231 0.00045,17.086195 L0.00045,127.020561 C0.1332,128.344147 1.0647,129.440102 2.229075,129.440102 L2.229075,129.440102 Z" mask="url(#clipboard-b)"/>
    </g>
    <mask id="clipboard-d" fill="#fff">
      <use xlink:href="#clipboard-c"/>
    </mask>
    <polygon fill="#000" points="24.086 41.197 64.34 41.197 64.34 38.436 24.086 38.436" mask="url(#clipboard-d)"/>
    <polygon fill="#000" points="15.104 39.268 12.675 36.545 10.912 38.588 15.104 43.314 23.421 33.86 21.624 31.856" mask="url(#clipboard-d)"/>
    <polygon fill="#000" points="24.086 55 64.34 55 64.34 52.239 24.086 52.239" mask="url(#clipboard-d)"/>
    <polygon fill="#000" points="15.104 53.109 12.675 50.386 10.912 52.39 15.104 57.155 23.421 47.701 21.624 45.659" mask="url(#clipboard-d)"/>
    <polygon fill="#000" points="24.086 68.841 64.34 68.841 64.34 66.08 24.086 66.08" mask="url(#clipboard-d)"/>
    <polygon fill="#000" points="15.104 66.95 12.675 64.189 10.912 66.231 15.104 70.959 23.421 61.505 21.624 59.5" mask="url(#clipboard-d)"/>
    <polygon fill="#000" points="24.086 82.644 64.34 82.644 64.34 79.883 24.086 79.883" mask="url(#clipboard-d)"/>
    <polygon fill="#000" points="15.104 80.753 12.675 78.03 10.912 80.034 15.104 84.799 23.421 75.345 21.624 73.303" mask="url(#clipboard-d)"/>
    <polygon fill="#000" points="24.086 96.485 64.34 96.485 64.34 93.724 24.086 93.724" mask="url(#clipboard-d)"/>
    <polygon fill="#000" points="15.104 94.594 12.675 91.833 10.912 93.875 15.104 98.64 23.421 89.149 21.624 87.144" mask="url(#clipboard-d)"/>
    <polygon fill="#000" points="24.086 110.289 64.34 110.289 64.34 107.528 24.086 107.528" mask="url(#clipboard-d)"/>
    <polygon fill="#000" points="15.104 108.397 12.675 105.675 10.912 107.678 15.104 112.443 23.421 102.989 21.624 100.985" mask="url(#clipboard-d)"/>
  </g>
</svg>
