<svg xmlns="http://www.w3.org/2000/svg" xmlns:xlink="http://www.w3.org/1999/xlink" width="31" height="135" viewBox="0 0 31 135">
  <defs>
    <polygon id="pen-a" points="0 136.632 29.774 136.632 29.774 0 0 0"/>
  </defs>
  <g fill="none" fill-rule="evenodd" transform="translate(.25 -1.858)">
    <path fill="#000" d="M11.7102375,2.55816561 C18.1969875,2.55816561 23.4203625,8.49575954 23.3877375,15.8323903 L23.3877375,61.8164529 L0.0001125,61.8164529 L0.0001125,15.8694762 C0.0001125,8.49575954 5.2561125,2.55816561 11.7102375,2.55816561 Z"/>
    <mask id="pen-b" fill="#fff">
      <use xlink:href="#pen-a"/>
    </mask>
    <polygon fill="#000" points="2.628 123.042 21.258 123.042 21.258 63.784 2.628 63.784" mask="url(#pen-b)"/>
    <path fill="#000" d="M10.1799 135.37062L10.6119 135.37062 10.912275 138.017792C10.97865 138.698128 11.4444 139.190476 11.942775 139.190476 12.442275 139.190476 12.908025 138.698128 12.9744 138.017792L13.27365 135.37062 13.706775 135.37062 20.0934 125.008284 3.8259 125.008284 10.1799 135.37062zM25.1838 19.3110556L25.1838 61.7796227C27.711675 61.7796227 29.774925 59.4342539 29.774925 56.5607295L29.774925 24.5299487C29.774925 21.6551455 27.711675 19.3110556 25.1838 19.3110556" mask="url(#pen-b)"/>
  </g>
</svg>
