<svg xmlns="http://www.w3.org/2000/svg" width="69" height="133" viewBox="0 0 69 133">
  <path fill-rule="evenodd" d="M1128.63782,1579.69864 L1184.91184,1579.69864 L1184.91184,1472.81088 L1128.63782,1472.81088 L1128.63782,1579.69864 Z M1159.48357,1592.8417 L1154.06464,1592.8417 C1151.93228,1592.8417 1150.22552,1590.90156 1150.22552,1588.47763 C1150.22552,1586.05205 1151.93228,1584.11192 1154.06464,1584.11192 L1159.52685,1584.11192 C1161.65922,1584.11192 1163.36598,1586.05205 1163.36598,1588.47763 C1163.3227,1590.854 1161.61738,1592.8417 1159.48357,1592.8417 L1159.48357,1592.8417 Z M1126.37705,1597.25497 L1187.17261,1597.25497 C1189.17802,1597.25497 1190.79821,1595.4116 1190.79821,1593.13198 L1190.79821,1469.65877 C1190.79821,1467.37916 1189.17802,1465.53579 1187.17261,1465.53579 L1126.37705,1465.53579 C1124.37164,1465.53579 1122.75,1467.37916 1122.75,1469.65877 L1122.75,1593.08442 C1122.75,1595.36404 1124.37164,1597.25497 1126.37705,1597.25497 L1126.37705,1597.25497 Z" transform="translate(-1122 -1465)"/>
</svg>
