<?xml version="1.0" standalone="no"?>
<!DOCTYPE svg PUBLIC "-//W3C//DTD SVG 1.1//EN" "http://www.w3.org/Graphics/SVG/1.1/DTD/svg11.dtd" >
<svg xmlns="http://www.w3.org/2000/svg">
<metadata></metadata>
<defs>
<font id="moderneregular" horiz-adv-x="1134" >
<font-face units-per-em="2048" ascent="1638" descent="-410" />
<missing-glyph horiz-adv-x="567" />
<glyph horiz-adv-x="2048" />
<glyph horiz-adv-x="2048" />
<glyph unicode="&#xd;" horiz-adv-x="567" />
<glyph unicode=" "  horiz-adv-x="567" />
<glyph unicode="&#x09;" horiz-adv-x="567" />
<glyph unicode="&#xa0;" horiz-adv-x="567" />
<glyph unicode="!" horiz-adv-x="604" d="M227 0v258h154v-258h-154zM227 395v1118h154v-1118h-154z" />
<glyph unicode="&#x22;" horiz-adv-x="632" d="M152 1051v462h108v-462h-108zM379 1051v462h108v-462h-108z" />
<glyph unicode="#" d="M12 510l35 121h307l72 250h-305l33 120h311l147 512h88l-147 -512h180l152 512h88l-4 -6l-146 -506h305l-32 -120h-310l-73 -250h307l-35 -121h-309l-148 -510h-92l152 510h-182l-152 -510h-88l151 510h-305zM442 631h183l71 250h-180z" />
<glyph unicode="$" d="M154 467h145v-27q0 -104 81 -177t187 -73q115 0 192 79t77 194q0 180 -185 244l-192 65q-258 88 -258 354q0 141 79.5 233.5t219.5 123.5v172h137v-172q315 -59 332 -371h-148q-6 109 -72.5 175.5t-173.5 66.5q-102 0 -165.5 -68.5t-63.5 -171.5q0 -158 160 -211l201 -67 q129 -43 201.5 -142.5t72.5 -234.5q0 -156 -95 -269.5t-249 -130.5v-170h-137v170q-156 25 -251 137.5t-95 270.5z" />
<glyph unicode="%" horiz-adv-x="1587" d="M27 1186q0 154 103 253t257 99t254 -102t100 -256q0 -147 -105.5 -253t-252.5 -106q-152 0 -254 106.5t-102 258.5zM174 1184q0 -88 60.5 -152.5t148.5 -64.5t148.5 63.5t60.5 151.5q0 82 -56.5 147.5t-136.5 65.5q-8 0 -28 -4q-197 -39 -197 -207zM371 0l678 1513h151 l-680 -1513h-149zM825 334q0 150 104.5 254t254.5 104q152 0 254 -104t102 -258q0 -150 -103.5 -253.5t-254.5 -103.5q-152 0 -254.5 104.5t-102.5 256.5zM973 330q0 -88 61.5 -149.5t149.5 -61.5q90 0 149.5 61.5t59.5 151.5t-60.5 152.5t-150.5 62.5t-149.5 -63.5 t-59.5 -153.5z" />
<glyph unicode="&#x26;" horiz-adv-x="1550" d="M115 438q0 270 342 455q-160 154 -160 307q0 143 107.5 240.5t252.5 97.5q147 0 257 -103.5t110 -250.5q0 -229 -295 -344l285 -281l217 424h174l-283 -534l385 -371l-112 -105l-344 336q-174 -338 -463 -338q-197 0 -335 135.5t-138 331.5zM268 432q0 -131 91.5 -223 t222.5 -92q209 0 354 303l-363 356q-221 -111 -274 -217q-31 -61 -31 -127zM451 1200q0 -63 49 -129q18 -25 96 -102l18 -19q256 92 256 248q0 82 -65.5 137.5t-149.5 55.5q-82 0 -143 -54.5t-61 -136.5z" />
<glyph unicode="'" horiz-adv-x="413" d="M0 1395h172l53 164l56 -164h172l-140 -103l54 -164l-142 101l-139 -101l53 164z" />
<glyph unicode="(" horiz-adv-x="755" d="M117 629q0 285 151 530q158 262 416 354l4 -133q-195 -115 -307.5 -321.5t-112.5 -435.5q0 -225 114 -431t306 -317v-133q-74 14 -125 47q-31 18 -104 86q-342 307 -342 754z" />
<glyph unicode=")" horiz-adv-x="755" d="M68 -127q190 100 307 320q113 209 112 432q0 229 -110 434q-115 217 -309 319v135q258 -84 421 -350q152 -247 152 -532q0 -449 -348 -762q-68 -61 -103 -82q-43 -27 -122 -45v131z" />
<glyph unicode="*" horiz-adv-x="870" d="M129 1190v106h211l-109 185l101 57l104 -182l111 182l96 -57l-108 -185h202v-106h-202l108 -178l-96 -60l-111 183l-104 -183l-101 58l111 180h-213z" />
<glyph unicode="+" horiz-adv-x="1241" d="M104 541v157h439v437h157v-437h437v-157h-437v-441h-157v441h-439z" />
<glyph unicode="," horiz-adv-x="567" d="M184 -137l181 395h155l-180 -395h-156z" />
<glyph unicode="-" horiz-adv-x="679" d="M61 547v137h557v-137h-557z" />
<glyph unicode="." horiz-adv-x="567" d="M207 0v258h153v-258h-153z" />
<glyph unicode="/" horiz-adv-x="894" d="M80 -262l592 1775h143l-598 -1775h-137z" />
<glyph unicode="0" d="M61 543v495q0 209 149.5 354.5t358.5 145.5q219 0 363.5 -148.5t144.5 -367.5v-500q0 -242 -131 -391q-137 -158 -377 -158q-246 0 -381 166q-127 154 -127 404zM217 512q0 -170 90 -279q96 -117 262 -116q88 0 166 39q86 43 127 114q62 107 62 267v471q0 166 -95 272 q-100 111 -264 111q-160 0 -256 -115q-92 -106 -92 -268v-496z" />
<glyph unicode="1" d="M317 1374v139h408v-1513h-154v1374h-254z" />
<glyph unicode="2" d="M66 0v133l643 623q174 168 174 325q0 133 -97.5 222.5t-230.5 89.5q-137 0 -231.5 -95.5t-94.5 -232.5q0 -8 4 -43h-153l-4 37q0 205 139 342t346 137q197 0 337 -133t140 -330q0 -211 -225 -426l-534 -510h749v-139h-962z" />
<glyph unicode="3" d="M66 444l2 11v20h155q6 -152 88 -250q88 -106 236 -106q137 0 235.5 99t98.5 237q0 100 -59.5 193t-151.5 120q-84 25 -183 25h-36v137q31 -4 61 -4q115 0 191.5 61.5t76.5 173.5q0 98 -65.5 165t-163.5 67q-104 0 -164.5 -75t-62.5 -183h-154q4 176 107.5 289.5 t277.5 113.5q162 0 271.5 -111.5t109.5 -275.5t-156 -285q254 -130 254 -409q0 -205 -140 -344.5t-345 -139.5q-195 0 -339 138.5t-144 332.5z" />
<glyph unicode="4" d="M23 391q0 41 53 101l680 1021h186v-1099h139v-138h-139v-276h-154v276h-763v91q-2 10 -2 24zM205 414h583v886z" />
<glyph unicode="5" d="M53 475h154q14 -152 112.5 -254t247.5 -102q156 0 258.5 112.5t102.5 268.5t-101.5 270.5t-257.5 114.5q-168 0 -311 -162l-123 45l137 745h686v-139h-561l-75 -416q131 72 256 72q217 0 360 -154.5t143 -373.5q0 -221 -143 -373q-147 -158 -367 -158q-213 0 -356 148 q-139 141 -162 356z" />
<glyph unicode="6" d="M51 506q0 135 55 242l48 90l450 675h178l-358 -530q88 45 176 45q209 0 348 -160q135 -151 135 -364q0 -219 -147.5 -375t-366.5 -156t-368.5 156t-149.5 377zM205 504q0 -156 103.5 -269.5t256.5 -113.5q156 0 261.5 110.5t105.5 266.5q0 162 -104.5 273.5t-264.5 111.5 q-156 0 -257 -112t-101 -267z" />
<glyph unicode="7" d="M129 1374v139h875v-139l-617 -1374h-168l623 1374h-713z" />
<glyph unicode="8" d="M86 440q0 131 68.5 243t185.5 163q-176 84 -176 301q0 170 116.5 280.5t288.5 110.5q170 0 285 -113.5t115 -283.5q0 -213 -181 -295q261 -130 261 -402q0 -199 -142.5 -335t-341.5 -136t-339 135.5t-140 331.5zM240 440q0 -137 94 -229t231 -92t233.5 95t96.5 232 q0 139 -98.5 227.5t-237.5 88.5q-133 0 -226 -94.5t-93 -227.5zM319 1153q0 -100 73 -173t173 -73t175 72t75 172q0 102 -71.5 171t-174.5 69h-14q-92 0 -168 -74q-68 -66 -68 -164z" />
<glyph unicode="9" d="M51 1008q0 219 148.5 374.5t365.5 155.5q221 0 369.5 -155.5t148.5 -376.5q0 -158 -84 -297q-45 -74 -92 -146l-377 -563h-178l357 528q-76 -45 -170 -45q-209 0 -351 160q-137 154 -137 365zM203 1014q0 -139 100 -256q104 -123 242 -123q236 0 336 178q49 89 49 191 q0 162 -101.5 274.5t-263.5 112.5h-18q-141 0 -242.5 -117t-101.5 -260z" />
<glyph unicode=":" horiz-adv-x="567" d="M207 0v258h153v-258h-153zM207 784v260h153v-260h-153z" />
<glyph unicode=";" horiz-adv-x="567" d="M82 -137l182 395h154l-180 -395h-156zM264 784v260h154v-260h-154z" />
<glyph unicode="&#x3c;" horiz-adv-x="1241" d="M100 551v131l1041 475q2 -55 2 -127v-24q-4 -4 -703 -324l-143 -66l846 -391v-149z" />
<glyph unicode="=" horiz-adv-x="1241" d="M102 340v156h1035v-156h-1035zM102 739v154h1035v-154h-1035z" />
<glyph unicode="&#x3e;" horiz-adv-x="1241" d="M98 76v149l846 391l-846 390v151l1045 -475v-131z" />
<glyph unicode="?" horiz-adv-x="1210" d="M131 1067q-14 201 137 338q143 133 346 133q201 0 331 -130t130 -331q0 -143 -90 -237l-184 -195q-94 -100 -109 -250h-153v19q-2 10 -2 12q0 174 159 330l156 151q70 68 70 185q0 127 -93.5 213t-222.5 86q-131 0 -229 -94.5t-98 -225.5q0 -18 2 -33h-148zM539 0v258 h153v-258h-153z" />
<glyph unicode="@" horiz-adv-x="1775" d="M145 760q0 328 226.5 553t556.5 225q289 0 491 -176q213 -186 213 -471q0 -215 -131 -402q-145 -205 -352 -204q-137 0 -176 106q-100 -104 -242 -104q-135 0 -215 90q-76 84 -76 221q0 225 140 416q154 211 370 211q156 0 234 -133q10 35 30 90q4 2 17 2h24q14 -2 27 -2 q-10 0 0 2h33h41l-213 -635q-25 -74 -25 -100q0 -55 62 -56q88 0 182 94q82 80 121 175q47 113 47 231q0 242 -182 397q-174 147 -420 148q-287 0 -481.5 -200t-194.5 -486q0 -283 193.5 -478.5t476.5 -195.5q162 0 311 74q158 78 240 208h124q-102 -182 -282 -283.5 t-391 -101.5q-330 0 -554.5 227.5t-224.5 557.5zM600 604q0 -74 43 -129t115 -55q174 0 284 297q56 149 56 217q0 166 -148 166h-10q-145 0 -252 -182q-88 -152 -88 -314z" />
<glyph unicode="A" horiz-adv-x="1515" d="M23 0l651 1513h170l649 -1513h-166l-219 508h-702l-218 -508h-165zM467 647h582l-289 688z" />
<glyph unicode="B" horiz-adv-x="1175" d="M156 0v1513q61 2 186 3q209 0 258 -5q274 -23 383 -211q51 -90 51 -190q0 -182 -170 -301q250 -109 250 -375q0 -209 -149 -325q-137 -109 -351 -109h-458zM309 139l277 -2h9q154 0 249 66q114 77 114 229q0 139 -96 223q-89 74 -221 74h-14l-78 -2h-240v-588zM309 866 h205q10 0 23 2h12q137 0 225 56q107 65 107 194q0 115 -86 182q-74 59 -195 72l-20 2h-271v-508z" />
<glyph unicode="C" horiz-adv-x="1665" d="M90 758q0 330 227.5 555t556.5 225q279 0 500 -174q141 -111 197 -240h-170q-88 125 -227.5 196t-292.5 71q-264 0 -450.5 -185.5t-186.5 -449.5q0 -262 188.5 -448.5t450.5 -186.5q332 0 524 276h170q-98 -197 -288.5 -310.5t-414.5 -113.5q-332 0 -558 226.5 t-226 558.5z" />
<glyph unicode="D" horiz-adv-x="1523" d="M156 0v1513h462q143 0 332 -61q244 -80 383 -322q101 -173 101 -376q0 -326 -227.5 -540t-555.5 -214h-495zM309 139h115q242 0 321 11q307 39 455 307q78 141 78 303q0 238 -158.5 412t-394.5 192l-137 10h-279v-1235z" />
<glyph unicode="E" horiz-adv-x="1097" d="M156 0v1513h827v-139h-674v-543h654v-137h-654v-555h674v-139h-827z" />
<glyph unicode="F" horiz-adv-x="993" d="M156 0v1513h770v-139h-617v-545h592v-139h-592v-690h-153z" />
<glyph unicode="G" horiz-adv-x="1785" d="M90 758q0 334 237.5 557t573.5 223q340 0 584 -246q92 -92 125 -184h-174q-80 135 -228.5 210t-310.5 75q-272 0 -462.5 -184.5t-190.5 -454.5t192.5 -452.5t464.5 -182.5q209 0 383 119q184 125 232 321h-844v139h1030q-20 -313 -252.5 -519t-550.5 -206 q-332 0 -570.5 227.5t-238.5 557.5z" />
<glyph unicode="H" horiz-adv-x="1398" d="M156 0v1513h153v-665h781v665h153v-1513h-153v711h-781v-711h-153z" />
<glyph unicode="I" horiz-adv-x="462" d="M154 0v1513h155v-1513h-155z" />
<glyph unicode="J" horiz-adv-x="987" d="M23 360h151q35 -241 262 -241h2q113 0 178 76q61 70 62 184v1134h153v-1105q0 -150 -51 -240q-111 -195 -352 -195q-172 0 -285.5 108.5t-119.5 278.5z" />
<glyph unicode="K" horiz-adv-x="1210" d="M154 0v1513h155v-868l697 868h194l-598 -737l598 -776h-192l-504 653q-8 -8 -12 -16q-172 -199 -183 -223q-4 -10 -4 -15v-18q0 23 2 -21.5t2 -66.5v-293h-155z" />
<glyph unicode="L" horiz-adv-x="946" d="M156 0v1513h153v-1374h625v-139h-778z" />
<glyph unicode="M" horiz-adv-x="1882" d="M156 0v1513h235l551 -1284l551 1284h233v-1513h-153v1339l-565 -1339h-131l-568 1339v-1339h-153z" />
<glyph unicode="N" horiz-adv-x="1515" d="M156 0v1513h206l844 -1251v1251h154v-1513h-152l-899 1327v-1327h-153z" />
<glyph unicode="O" horiz-adv-x="1779" d="M90 752q0 330 233.5 558t563.5 228q332 0 567.5 -224t235.5 -554q0 -332 -233.5 -559.5t-565.5 -227.5q-330 0 -565.5 225.5t-235.5 553.5zM246 754q0 -268 188.5 -451.5t458.5 -183.5t456.5 185.5t186.5 455.5q0 262 -190.5 447.5t-454.5 185.5q-268 0 -456.5 -185.5 t-188.5 -453.5z" />
<glyph unicode="P" horiz-adv-x="1212" d="M156 0v1513h473q227 0 370 -110q160 -123 160 -344q0 -141 -76.5 -252t-210.5 -160q-100 -37 -243 -37h-107l-213 -2v-608h-153zM309 748h162q152 0 203 2q102 4 188 53q142 80 142 260q0 137 -99 221q-90 80 -231 88l-33 2h-332v-626z" />
<glyph unicode="Q" horiz-adv-x="1783" d="M90 756q0 340 240 563q231 219 575 219q346 0 579.5 -223t233.5 -567q0 -227 -127 -418q-41 -61 -127 -144q101 -71 189 -71h2h39v-142h-21q-190 0 -317 129q-203 -129 -447 -129q-344 0 -577 217q-242 225 -242 566zM242 752q0 -86 26 -181q164 55 330 56 q397 0 762 -336q205 206 205 454q0 279 -189.5 462.5t-470.5 183.5q-272 0 -467.5 -183.5t-195.5 -455.5zM330 442q189 -323 575 -323h2q193 0 330 90q-4 4 -23 18q-209 162 -317 201q-154 55 -340 55q-121 0 -227 -41z" />
<glyph unicode="R" horiz-adv-x="1243" d="M154 0v1513l489 -2q338 -2 479 -245q62 -111 62 -240q0 -195 -126 -323t-321 -140l426 -563h-192l-514 686h88q217 0 315 55q170 96 170 289q0 106 -63.5 197.5t-164 120t-343.5 28.5h-76q8 0 -43 -2h-33v-1374h-153z" />
<glyph unicode="S" horiz-adv-x="1019" d="M43 399v27h166q8 -133 92 -220t215 -87q125 0 215 84t90 209q0 90 -55 170t-141 106l-265 80q-121 37 -194.5 136.5t-73.5 225.5q0 178 122 293t302 115t300 -115.5t122 -296.5h-158q-8 115 -86 190t-192 75q-109 0 -182.5 -78t-73.5 -187q0 -80 46 -141t124 -84l264 -78 q131 -39 214 -154.5t83 -252.5q0 -190 -137.5 -316.5t-329.5 -126.5q-184 0 -322 121q-145 125 -145 305z" />
<glyph unicode="T" horiz-adv-x="872" d="M14 1374v139h844v-139h-342v-1374h-154v1374h-348z" />
<glyph unicode="U" horiz-adv-x="1341" d="M156 524v989h153v-960q0 -182 88 -301q98 -133 275 -133q172 0 270 127q90 115 90 291v976h154v-991q0 -238 -137 -389q-141 -160 -377 -160t-379 160q-137 154 -137 391z" />
<glyph unicode="V" horiz-adv-x="1437" d="M20 1513h168l529 -1320l532 1320h168l-626 -1513h-146z" />
<glyph unicode="W" horiz-adv-x="1966" d="M20 1513h162l369 -1312l360 1312h146l360 -1310l369 1310h160l-430 -1513h-203l-330 1235l-332 -1235h-200z" />
<glyph unicode="X" horiz-adv-x="1247" d="M16 0l514 772l-483 741h178l400 -604l397 604h178l-487 -739l520 -774h-182l-426 645l-428 -645h-181z" />
<glyph unicode="Y" horiz-adv-x="1212" d="M4 1513h168l434 -847l436 847h166l-524 -1007v-506h-154v506z" />
<glyph unicode="Z" horiz-adv-x="983" d="M35 0v133l741 1241h-721v139h895v-139l-741 -1235h762v-139h-936z" />
<glyph unicode="[" horiz-adv-x="718" d="M227 322v628q0 270 189 439q102 90 209 120l14 4l2 -157l-2 -2q-2 -2 -70 -35q-41 -20 -90 -75.5t-65 -100.5q-37 -102 -37 -201v-610q0 -332 264 -434l2 -142q0 -16 -6 -16t-21 6l-94 39q-57 25 -127 94q-61 63 -98 125q-70 121 -70 318z" />
<glyph unicode="\" horiz-adv-x="1239" d="M170 1513h149l631 -1513h-145z" />
<glyph unicode="]" horiz-adv-x="718" d="M76 -102q129 43 198 155q68 106 68 248v655q0 170 -109 295q-47 55 -157 105v157q168 -57 264 -157q152 -156 152 -373v-696q0 -311 -271 -488q-70 -45 -145 -59v158z" />
<glyph unicode="^" horiz-adv-x="1241" d="M35 369l524 1144h121l524 -1144h-133l-455 987l-446 -987h-135z" />
<glyph unicode="_" horiz-adv-x="1024" d="M-2 -135h1026v-121h-1026v121z" />
<glyph unicode="`" horiz-adv-x="774" d="M152 1473l65 122l406 -221l-66 -121z" />
<glyph unicode="a" horiz-adv-x="1398" d="M86 557q0 252 179 420t433 168q279 0 424 -232v207h148v-1120h-148v205q-154 -231 -420 -232q-258 0 -434 162q-182 166 -182 422zM240 559q0 -184 130 -311t314 -127t311 127t127 311t-124 311t-306 127q-188 0 -320 -126t-132 -312z" />
<glyph unicode="b" horiz-adv-x="1396" d="M129 0v1513h154v-598q127 229 424 230q252 0 428 -166t176 -416q0 -246 -170 -420t-416 -174q-131 0 -252 58q-129 61 -199 163v-190h-145zM272 563q0 -193 125 -318.5t318 -125.5q188 0 315 128t127 316q0 186 -128 310t-314 124q-190 0 -316.5 -121.5t-126.5 -312.5z " />
<glyph unicode="c" horiz-adv-x="1325" d="M86 559q0 248 178 417t428 169q254 0 430 -174q74 -74 113 -166l10 -25h-172q-127 217 -385 217q-188 0 -318 -124.5t-130 -313.5q0 -186 130 -314t318 -128q117 0 221.5 56t163.5 155h170q-72 -164 -221.5 -259.5t-329.5 -95.5q-254 0 -430 167t-176 419z" />
<glyph unicode="d" horiz-adv-x="1402" d="M86 549q0 258 171 427t429 169q285 0 434 -213v581h154v-1513h-146v199q-164 -225 -444 -226q-197 0 -379 142q-117 90 -168 190.5t-51 243.5zM240 563q0 -186 128 -315t314 -129t314 129t128 315t-130 310t-318 124q-182 0 -309 -126t-127 -308z" />
<glyph unicode="e" horiz-adv-x="1331" d="M84 561q0 248 169 416t417 168q184 0 338.5 -109.5t210.5 -283.5q28 -90 32 -246h-1011q10 -164 135 -275.5t291 -111.5q123 0 234.5 67.5t158.5 178.5h162q-68 -176 -217.5 -284t-335.5 -108q-246 0 -415 171t-169 417zM240 643h858q-41 158 -156 256t-274 98 q-162 0 -277 -97t-151 -257z" />
<glyph unicode="f" horiz-adv-x="643" d="M31 981v139h176q-2 16 -2 35q0 174 112 268q106 90 283 90h10l25 -139h-27q-248 0 -248 -254h279v-139h-279v-981h-153v981h-176z" />
<glyph unicode="g" horiz-adv-x="1378" d="M84 551q0 252 163 423t412 171q293 0 443 -236v211h147v-1048q0 -225 -174 -371q-164 -139 -393 -139q-197 0 -349.5 112.5t-205.5 300.5h149q143 -268 408 -268q158 0 272 86q125 92 142 244q4 37 4 135v43q-55 -119 -178 -182q-113 -59 -252 -60q-246 0 -417 166 t-171 412zM240 561q0 -186 121.5 -314t306.5 -128q182 0 308 128t126 312q0 186 -128 312t-315 126q-184 0 -301.5 -124.5t-117.5 -311.5z" />
<glyph unicode="h" horiz-adv-x="1249" d="M129 0v1513h154v-550q115 182 340 182q219 0 358 -145.5t139 -366.5v-633h-153v625q0 162 -90 266q-95 108 -253 108h-3q-152 0 -245 -94t-93 -246v-659h-154z" />
<glyph unicode="i" horiz-adv-x="409" d="M127 0v1120h156v-1120h-156zM127 1253v260h156v-260h-156z" />
<glyph unicode="j" horiz-adv-x="415" d="M-92 -244q225 12 225 277v1087h154v-1140q0 -160 -108.5 -265.5t-270.5 -107.5v149zM133 1253v260h154v-260h-154z" />
<glyph unicode="k" horiz-adv-x="1028" d="M129 0v1513h154v-1060l510 667h196l-432 -559l461 -561h-197l-362 440l-176 -227v-213h-154z" />
<glyph unicode="l" horiz-adv-x="409" d="M127 0v1513h156v-1513h-156z" />
<glyph unicode="m" horiz-adv-x="1921" d="M129 0v1120h145v-141q84 166 301 166q197 0 312 -121q14 -14 57 -68q6 -6 19 -22q113 209 366 209q119 0 233.5 -66.5t178.5 -169.5q51 -82 51 -229v-678h-154v666q0 141 -79 235q-86 96 -226 96q-102 0 -186 -61.5t-100 -159.5q-10 -59 -11 -203v-573h-153v692 q0 127 -90.5 216t-217.5 89q-133 0 -212.5 -85t-79.5 -220v-692h-154z" />
<glyph unicode="n" horiz-adv-x="1249" d="M129 0v1120h145v-159q133 184 347 184q221 0 360 -144.5t139 -367.5v-633h-153v618q0 166 -92.5 272.5t-256.5 106.5q-201 0 -292 -159q-43 -76 -43 -205v-633h-154z" />
<glyph unicode="o" horiz-adv-x="1341" d="M86 557q0 244 170 416t414 172t414.5 -172t170.5 -416q0 -246 -171 -415t-416 -169q-244 0 -413 170t-169 414zM240 555q0 -182 124.5 -309t307.5 -127q184 0 308 130t124 314q0 186 -124 310t-310 124q-182 0 -306 -130t-124 -312z" />
<glyph unicode="p" horiz-adv-x="1396" d="M129 -393v1513h145v-188q70 102 191 160q115 53 246 53q252 0 426 -166t174 -416q0 -254 -175 -422t-429 -168q-281 0 -424 232v-598h-154zM272 557q0 -188 126 -313t317 -125q186 0 314 126t128 310q0 188 -126 315t-314 127h-25q-176 0 -298 -131t-122 -309z" />
<glyph unicode="q" horiz-adv-x="1396" d="M86 561q0 250 171 417t421 167q133 0 250 -53q127 -57 194 -160v188h146v-1513h-154v596q-127 -229 -426 -230q-254 0 -428 168t-174 420zM240 557q0 -186 128 -312t314 -126q188 0 316 126t128 312q0 193 -128 316.5t-320 123.5h-27q-164 0 -293 -137 q-119 -127 -118 -303z" />
<glyph unicode="r" horiz-adv-x="616" d="M129 0v1120h145v-157q98 182 306 182h16v-148q-121 -2 -217 -93t-96 -210v-694h-154z" />
<glyph unicode="s" horiz-adv-x="794" d="M37 332h153q4 -96 57.5 -154.5t147.5 -58.5q80 0 136.5 54t56.5 134q0 139 -178 199l-123 41q-96 33 -152.5 109.5t-56.5 177.5q0 133 93 222t226 89q127 0 221.5 -86t94.5 -213v-4h-154q-14 157 -164 157h-2q-68 0 -115 -45t-47 -112q0 -119 158 -172q186 -61 252 -115 q100 -80 100 -223q0 -154 -101 -256.5t-255 -102.5q-158 0 -253 100.5t-95 258.5z" />
<glyph unicode="t" horiz-adv-x="694" d="M23 981v139h233v393h154v-393h262v-139h-262v-981h-154v981h-233z" />
<glyph unicode="u" horiz-adv-x="1245" d="M129 471v649h154v-641q0 -156 92 -258t246 -102q147 0 244.5 99t97.5 249v653h153v-1120h-145v168q-74 -109 -158 -152t-217 -43q-127 0 -251 76t-177 189q-39 84 -39 233z" />
<glyph unicode="v" d="M14 1120h168l385 -923l385 923h166l-471 -1120h-160z" />
<glyph unicode="w" horiz-adv-x="1701" d="M14 1120h162l350 -934l258 797h129l256 -797l357 934h162l-426 -1120h-177l-237 739l-234 -739h-176z" />
<glyph unicode="x" horiz-adv-x="983" d="M16 0l383 569l-383 551h181l295 -430l296 430h181l-385 -551l385 -569h-181l-296 446l-295 -446h-181z" />
<glyph unicode="y" horiz-adv-x="1097" d="M16 1120h164l359 -889l376 889h164l-645 -1513h-164l179 430z" />
<glyph unicode="z" horiz-adv-x="870" d="M20 0v133l605 848h-586v139h772v-137l-600 -844h641v-139h-832z" />
<glyph unicode="{" horiz-adv-x="718" d="M74 627q168 53 168 172v450q0 264 282 264h33q-166 -57 -166 -194v-440q0 -203 -184 -252q184 -41 184 -209v-467q0 -84 38 -131t120 -78h-17q-291 0 -290 211v489q0 156 -168 185z" />
<glyph unicode="|" horiz-adv-x="1376" d="M623 0v1513h133v-1513h-133z" />
<glyph unicode="}" horiz-adv-x="718" d="M76 1513q147 0 217 -45q88 -55 90 -192l4 -459q2 -135 166 -190q-168 -37 -168 -191v-461q0 -233 -276 -233h-29q156 51 156 192v455q0 104 41.5 158.5t142.5 79.5q-184 47 -184 235v445q0 147 -160 206z" />
<glyph unicode="~" horiz-adv-x="1241" d="M104 532q133 240 285 240q86 0 191 -45l170 -74q51 -23 100 -22q113 0 199 172l88 -98l-13 -23q-113 -205 -266 -205q-84 0 -194 49q-201 90 -267 90t-116 -53q-29 -29 -80 -108q-2 -4 -13 -23z" />
<glyph unicode="&#xa1;" horiz-adv-x="604" d="M227 -393v1122h154v-1122h-154zM227 860v260h154v-260h-154z" />
<glyph unicode="&#xa2;" d="M90 786q0 186 129 318q123 125 311 147v193h138v-193q176 -29 282 -147q65 -74 92 -160h-172q-90 162 -286 162q-137 0 -238.5 -93t-101.5 -229q0 -137 101 -233t239 -96q178 0 280 139h168q-49 -117 -145 -194.5t-219 -90.5v-182h-138v182q-184 10 -312 150.5 t-128 326.5z" />
<glyph unicode="&#xa3;" d="M35 707v139h149q-41 96 -41 188q0 205 146.5 354.5t351.5 149.5q188 0 333.5 -125t160.5 -309h-146q-29 125 -124 207t-222 82q-147 0 -248.5 -103.5t-101.5 -253.5q0 -96 59 -190h582v-139h-436q147 -147 147 -336q0 -109 -61 -232q49 -2 106 -2q121 0 189 25 q90 33 141 123q39 68 39 174q0 49 -12 90h149q18 -82 18 -125q0 -195 -141 -313q-135 -111 -332 -111h-624v139h289q86 96 86 232q0 106 -58 190q-43 63 -141 146h-258z" />
<glyph unicode="&#xa4;" d="M53 621q0 154 97 303l-87 88l109 108l90 -88q137 100 307 101q162 0 303 -101l93 88l108 -108l-90 -88q98 -140 98 -312q0 -156 -98 -301l88 -86l-106 -108l-91 88q-154 -104 -315 -105q-141 0 -299 105l-88 -88l-109 108l89 86q-98 154 -99 310zM201 618 q0 -156 105.5 -262t258.5 -106q154 0 260.5 106t106.5 260q0 158 -103.5 262.5t-259.5 104.5q-158 0 -263 -104.5t-105 -260.5z" />
<glyph unicode="&#xa5;" d="M0 1513h168l440 -847l430 847h168l-297 -575h203v-129h-270l-99 -195h355v-129h-414v-485h-154v485h-421v129h360l-102 195h-275v129h207z" />
<glyph unicode="&#xa7;" horiz-adv-x="1259" d="M178 698q0 174 180 308q-82 78 -82 208q0 141 103.5 232.5t245.5 91.5q137 0 243 -80q117 -86 119 -219h-145q-10 78 -76 119q-57 37 -139 37q-86 0 -144.5 -52.5t-58.5 -138.5q0 -102 113 -162l389 -202q157 -82 157 -238q0 -186 -165 -301q109 -96 108 -227 q0 -158 -113.5 -258.5t-275.5 -100.5q-182 0 -300 119t-122 301h145q8 -123 80 -196q76 -80 197 -80q98 0 169 57t71 154q0 113 -172 202l-398 207q-129 68 -129 219zM326 721q0 -90 106 -158q18 -10 184 -90q115 -55 203 -98q49 23 84 84.5t35 118.5q0 66 -47 110 q-74 72 -395 213l-52 23q-119 -78 -118 -203z" />
<glyph unicode="&#xa8;" horiz-adv-x="755" d="M150 1253v260h155v-260h-155zM453 1253v260h153v-260h-153z" />
<glyph unicode="&#xa9;" horiz-adv-x="1529" d="M-18 756q0 328 227 555t555 227t555 -226t227 -554q0 -330 -225 -557.5t-555 -227.5t-557 226.5t-227 556.5zM80 756q0 -287 198.5 -487.5t485.5 -200.5q289 0 487.5 200.5t198.5 489.5t-199.5 486.5t-488.5 197.5q-287 0 -484.5 -200t-197.5 -486zM367 764 q0 197 115.5 322.5t310.5 125.5q145 0 247.5 -77.5t122.5 -219.5h-114q-18 94 -90 149.5t-168 55.5q-141 0 -228 -106q-80 -98 -80 -244q0 -147 82 -252q88 -113 232 -112q98 0 168.5 56t83.5 152h114q-16 -141 -121.5 -223t-250.5 -82q-190 0 -307 131t-117 324z" />
<glyph unicode="&#xaa;" horiz-adv-x="755" d="M63 664v92h631v-92h-631zM63 1227q0 135 92.5 223t227.5 88q137 0 219 -102v90h92v-598h-92v86q-90 -102 -219 -103q-133 0 -226.5 91.5t-93.5 224.5zM156 1223q0 -92 67.5 -157t159.5 -65q90 0 154.5 67t64.5 157q0 94 -62.5 158.5t-156.5 64.5h-16q-90 -8 -150.5 -71.5 t-60.5 -153.5z" />
<glyph unicode="&#xab;" horiz-adv-x="870" d="M84 610l227 414l121 -63l-190 -343l190 -346l-121 -65zM436 618l228 406l124 -63l-190 -343l188 -346l-122 -65z" />
<glyph unicode="&#xac;" horiz-adv-x="1241" d="M104 735v158h1033v-553h-158v395h-875z" />
<glyph unicode="&#xad;" horiz-adv-x="679" d="M61 547v137h557v-137h-557z" />
<glyph unicode="&#xae;" horiz-adv-x="1529" d="M-18 758q0 328 227 554t555 226q330 0 556 -226t226 -556t-225 -556.5t-555 -226.5t-557 227.5t-227 557.5zM80 756q0 -289 198.5 -488.5t487.5 -199.5t486.5 199.5t197.5 490.5q0 289 -199.5 486.5t-488.5 197.5q-287 0 -484.5 -200t-197.5 -486zM473 319v875h381 q313 0 313 -236q0 -221 -272 -235l262 -404h-131l-248 404h-196v-404h-109zM582 807h211q123 0 176 20q88 34 88 134q0 156 -219 155h-256v-309z" />
<glyph unicode="&#xaf;" horiz-adv-x="993" d="M152 1255v138h692v-138h-692z" />
<glyph unicode="&#xb0;" horiz-adv-x="819" d="M100 1206q0 125 91.5 216t216.5 91q129 0 220 -90t91 -219q0 -127 -91 -216t-218 -89t-218.5 90t-91.5 217zM184 1206q0 -92 66.5 -158.5t159.5 -66.5q92 0 157.5 65.5t65.5 157.5q0 96 -65.5 161t-161.5 65q-90 0 -156 -67t-66 -157z" />
<glyph unicode="&#xb1;" horiz-adv-x="1241" d="M104 0v156h1033v-156h-1033zM104 645v158h439v332h157v-332h437v-158h-437v-334h-157v334h-439z" />
<glyph unicode="&#xb4;" horiz-adv-x="768" d="M150 1370l395 238l73 -119l-397 -236z" />
<glyph unicode="&#xb6;" horiz-adv-x="1155" d="M76 1120q0 104 51 196.5t139 141.5q98 55 264 55h476v-1771h-154v1632h-229v-1632h-154v981q-166 2 -279.5 116.5t-113.5 280.5z" />
<glyph unicode="&#xb7;" horiz-adv-x="567" d="M205 485v260h153v-260h-153z" />
<glyph unicode="&#xb8;" horiz-adv-x="663" d="M152 -307l90 8q25 -66 94 -66q37 0 61.5 27t24.5 66q0 41 -27.5 69.5t-68.5 28.5q-45 0 -82 -45l-66 35l82 186h80l-47 -117q35 12 61 13q72 0 115 -46t43 -118q0 -80 -51 -135.5t-131 -55.5q-143 0 -178 150z" />
<glyph unicode="&#xb9;" horiz-adv-x="679" d="M199 1427v86h280v-907h-112v821h-168z" />
<glyph unicode="&#xba;" horiz-adv-x="755" d="M63 664v92h629v-92h-629zM66 1225q0 129 91 221t218 92q131 0 224 -92t93 -223q0 -129 -92 -219.5t-223 -90.5q-129 0 -220 91.5t-91 220.5zM162 1225q0 -92 62.5 -156.5t154.5 -64.5t154.5 64.5t62.5 156.5q0 94 -61.5 157.5t-155.5 63.5t-155.5 -63.5t-61.5 -157.5z " />
<glyph unicode="&#xbb;" horiz-adv-x="870" d="M82 272l188 346l-188 343l121 63l229 -408l-229 -409zM436 272l189 346l-189 343l123 63l14 -27l215 -381l-231 -409z" />
<glyph unicode="&#xbc;" horiz-adv-x="1701" d="M207 1427v86h278v-907h-112v821h-166zM444 0l678 1513h135l-679 -1513h-134zM956 166v84l476 659h122v-659h91v-84h-91v-166h-108v166h-490zM1065 250h381v530z" />
<glyph unicode="&#xbd;" horiz-adv-x="1701" d="M197 1427v86h278v-907h-113v821h-165zM424 0l678 1513h135l-680 -1513h-133zM1034 0v82l436 393q84 76 84 178q0 80 -61 132.5t-143 52.5q-84 0 -139.5 -55.5t-55.5 -139.5v-29h-113v27q0 125 99 205q92 76 219 76t217 -78t90 -203q0 -133 -180 -301q-8 -8 -277 -238 q-4 -4 -18 -16h469v-86h-627z" />
<glyph unicode="&#xbf;" horiz-adv-x="1210" d="M135 20q0 158 94 259l187 196q98 104 102 254h156q-4 -211 -137 -346l-172 -174q-76 -76 -76 -193q0 -129 93 -218t222 -89q139 0 232.5 99.5t93.5 238.5v25h147v-31q0 -205 -137 -342t-342 -137q-197 0 -330 131t-133 327zM518 860v260h154v-260h-154z" />
<glyph unicode="&#xc0;" horiz-adv-x="1515" d="M23 0l651 1513h170l649 -1513h-166l-219 508h-702l-218 -508h-165zM467 647h582l-289 688zM522 1868l66 123l405 -222l-65 -120z" />
<glyph unicode="&#xc1;" horiz-adv-x="1515" d="M23 0l651 1513h170l649 -1513h-166l-219 508h-702l-218 -508h-165zM467 647h582l-289 688zM524 1767l396 238l73 -119l-397 -235z" />
<glyph unicode="&#xc2;" horiz-adv-x="1515" d="M23 0l651 1513h170l649 -1513h-166l-219 508h-702l-218 -508h-165zM393 1649l299 260h131l299 -260h-188l-176 149l-178 -149h-187zM467 647h582l-289 688z" />
<glyph unicode="&#xc3;" horiz-adv-x="1515" d="M23 0l651 1513h170l649 -1513h-166l-219 508h-702l-218 -508h-165zM461 1776q88 86 180 86q49 0 88 -21l82 -43q39 -20 76 -20q35 0 106 53l62 -98q-84 -82 -181 -82q-25 0 -43 8l-147 65q-18 8 -43 9q-59 0 -121 -60zM467 647h582l-289 688z" />
<glyph unicode="&#xc4;" horiz-adv-x="1515" d="M23 0l651 1513h170l649 -1513h-166l-219 508h-702l-218 -508h-165zM467 647h582l-289 688zM530 1649v260h156v-260h-156zM834 1649v260h153v-260h-153z" />
<glyph unicode="&#xc5;" horiz-adv-x="1515" d="M23 0l651 1513h170l649 -1513h-166l-219 508h-702l-218 -508h-165zM467 647h582l-289 688zM567 1839q0 80 55.5 134.5t135.5 54.5q78 0 134 -55.5t56 -133.5q0 -80 -56 -134t-136 -54q-78 0 -133.5 55t-55.5 133zM645 1839q0 -47 33 -78.5t80 -31.5t79.5 31.5t32.5 78.5 q0 49 -32.5 80t-83.5 31h-9q-43 0 -71.5 -34t-28.5 -77z" />
<glyph unicode="&#xc6;" horiz-adv-x="2031" d="M23 0l1050 1513h844v-139h-649v-543h626v-137h-626v-555h649v-139h-803v510h-553l-356 -510h-182zM657 647h457v666z" />
<glyph unicode="&#xc7;" horiz-adv-x="1665" d="M90 758q0 332 228.5 556t560.5 224q215 0 408.5 -111.5t283.5 -302.5h-170q-86 125 -226.5 196t-293.5 71q-264 0 -450.5 -185.5t-186.5 -449.5q0 -262 188.5 -448.5t450.5 -186.5q332 0 524 276h170q-98 -197 -288.5 -310.5t-411.5 -113.5h-46l-38 -88q35 12 63 13 q72 0 116 -45.5t44 -116.5q0 -80 -52.5 -136.5t-132.5 -56.5q-139 0 -180 150l92 8q29 -66 95 -66q37 0 62.5 30t25.5 67q0 41 -29 67.5t-70 26.5q-45 0 -82 -45l-63 35l74 168q-295 49 -480.5 263t-185.5 511z" />
<glyph unicode="&#xc8;" horiz-adv-x="1097" d="M156 0v1513h827v-139h-674v-543h654v-137h-654v-555h674v-139h-827zM334 1868l65 123l406 -222l-66 -120z" />
<glyph unicode="&#xc9;" horiz-adv-x="1097" d="M156 0v1513h827v-139h-674v-543h654v-137h-654v-555h674v-139h-827zM336 1767l395 238l74 -119l-397 -235z" />
<glyph unicode="&#xca;" horiz-adv-x="1097" d="M156 0v1513h827v-139h-674v-543h654v-137h-654v-555h674v-139h-827zM207 1649l299 260h131l299 -260h-188l-177 149l-178 -149h-186z" />
<glyph unicode="&#xcb;" horiz-adv-x="1097" d="M156 0v1513h827v-139h-674v-543h654v-137h-654v-555h674v-139h-827zM342 1649v260h156v-260h-156zM645 1649v260h154v-260h-154z" />
<glyph unicode="&#xcc;" horiz-adv-x="462" d="M154 0v1513h155v-1513h-155zM154 1874l65 123l406 -221l-66 -121z" />
<glyph unicode="&#xcd;" horiz-adv-x="462" d="M-4 1767l395 238l74 -119l-397 -235zM154 0v1513h155v-1513h-155z" />
<glyph unicode="&#xce;" horiz-adv-x="462" d="M-137 1595l299 260h131l299 -260h-189l-176 150l-178 -150h-186zM150 0v1513h155v-1513h-155z" />
<glyph unicode="&#xcf;" horiz-adv-x="462" d="M2 1649v260h156v-260h-156zM154 0v1513h155v-1513h-155zM305 1649v260h154v-260h-154z" />
<glyph unicode="&#xd1;" horiz-adv-x="1515" d="M156 0v1513h206l844 -1251v1251h154v-1513h-152l-899 1327v-1327h-153zM461 1776q88 86 180 86q49 0 88 -21l82 -43q39 -20 76 -20q35 0 106 53l62 -98q-84 -82 -181 -82q-25 0 -43 8l-147 65q-18 8 -43 9q-59 0 -121 -60z" />
<glyph unicode="&#xd2;" horiz-adv-x="1779" d="M90 752q0 330 233.5 558t563.5 228q332 0 567.5 -224t235.5 -554q0 -332 -233.5 -559.5t-565.5 -227.5q-330 0 -565.5 225.5t-235.5 553.5zM246 754q0 -268 188.5 -451.5t458.5 -183.5t456.5 185.5t186.5 455.5q0 262 -190.5 447.5t-454.5 185.5q-268 0 -456.5 -185.5 t-188.5 -453.5zM653 1892l66 123l405 -221l-65 -121z" />
<glyph unicode="&#xd3;" horiz-adv-x="1779" d="M90 752q0 330 233.5 558t563.5 228q332 0 567.5 -224t235.5 -554q0 -332 -233.5 -559.5t-565.5 -227.5q-330 0 -565.5 225.5t-235.5 553.5zM246 754q0 -268 188.5 -451.5t458.5 -183.5t456.5 185.5t186.5 455.5q0 262 -190.5 447.5t-454.5 185.5q-268 0 -456.5 -185.5 t-188.5 -453.5zM657 1790l396 238l73 -119l-397 -236z" />
<glyph unicode="&#xd4;" horiz-adv-x="1779" d="M90 752q0 330 233.5 558t563.5 228q332 0 567.5 -224t235.5 -554q0 -332 -233.5 -559.5t-565.5 -227.5q-330 0 -565.5 225.5t-235.5 553.5zM246 754q0 -268 188.5 -451.5t458.5 -183.5t456.5 185.5t186.5 455.5q0 262 -190.5 447.5t-454.5 185.5q-268 0 -456.5 -185.5 t-188.5 -453.5zM526 1673l299 260h131l299 -260h-188l-176 150l-178 -150h-187z" />
<glyph unicode="&#xd5;" horiz-adv-x="1779" d="M90 754q0 330 233.5 557t563.5 227q332 0 567.5 -224t235.5 -554q0 -332 -233.5 -559.5t-565.5 -227.5q-330 0 -565.5 225.5t-235.5 555.5zM246 754q0 -268 188.5 -451.5t458.5 -183.5t456.5 185.5t186.5 455.5q0 266 -191.5 449.5t-459.5 183.5q-264 0 -451.5 -187.5 t-187.5 -451.5zM594 1798q88 86 180 86q49 0 88 -20l82 -43q39 -20 76 -21q35 0 106 53l62 -98q-84 -82 -180 -82q-25 0 -43 8l-148 66q-18 8 -43 8q-59 0 -121 -59z" />
<glyph unicode="&#xd6;" horiz-adv-x="1779" d="M90 754q0 330 233.5 557t563.5 227t566.5 -225t236.5 -553q0 -332 -233.5 -559.5t-565.5 -227.5q-330 0 -565.5 225.5t-235.5 555.5zM246 754q0 -268 188.5 -451.5t458.5 -183.5t456.5 185.5t186.5 455.5q0 266 -191.5 449.5t-459.5 183.5q-264 0 -451.5 -187.5 t-187.5 -451.5zM662 1673v260h155v-260h-155zM965 1673v260h153v-260h-153z" />
<glyph unicode="&#xd7;" horiz-adv-x="1241" d="M102 215l406 406l-406 405l113 113l406 -406l405 406l111 -113l-404 -405l404 -406l-111 -111l-405 406l-406 -406z" />
<glyph unicode="&#xd8;" horiz-adv-x="1777" d="M88 754q0 328 232.5 555t560.5 227q231 0 415 -111l193 256l110 -90l-186 -245q275 -240 275 -598q0 -330 -235.5 -552.5t-567.5 -222.5q-225 0 -414 119l-192 -262l-117 84l196 260q-270 233 -270 580zM244 748q0 -252 202 -453l760 1014q-147 82 -309 82 q-276 0 -464.5 -183.5t-188.5 -459.5zM559 209q98 -53 158 -72q70 -20 170 -20q264 0 455.5 185.5t191.5 447.5q0 250 -168 430q-6 8 -45 43z" />
<glyph unicode="&#xd9;" horiz-adv-x="1341" d="M156 524v989h153v-960q0 -182 88 -301q98 -133 275 -133q172 0 270 127q90 115 90 291v976h154v-991q0 -238 -137 -389q-141 -160 -377 -160t-379 160q-137 154 -137 391zM436 1868l66 123l405 -222l-65 -120z" />
<glyph unicode="&#xda;" horiz-adv-x="1341" d="M156 524v989h153v-960q0 -182 88 -301q98 -133 275 -133q172 0 270 127q90 115 90 291v976h154v-991q0 -238 -137 -389q-141 -160 -377 -160t-379 160q-137 154 -137 391zM438 1767l396 238l73 -119l-397 -235z" />
<glyph unicode="&#xdb;" horiz-adv-x="1341" d="M156 524v989h153v-960q0 -182 88 -301q98 -133 275 -133q172 0 270 127q90 115 90 291v976h154v-991q0 -238 -137 -389q-141 -160 -377 -160t-379 160q-137 154 -137 391zM307 1649l299 260h131l299 -260h-188l-176 149l-178 -149h-187z" />
<glyph unicode="&#xdc;" horiz-adv-x="1341" d="M156 524v989h153v-960q0 -182 88 -301q98 -133 275 -133q172 0 270 127q90 115 90 291v976h154v-991q0 -238 -137 -389q-141 -160 -377 -160t-379 160q-137 154 -137 391zM444 1649v260h156v-260h-156zM748 1649v260h153v-260h-153z" />
<glyph unicode="&#xdd;" horiz-adv-x="1212" d="M4 1513h168l434 -847l436 847h166l-524 -1007v-506h-154v506zM377 1769l395 238l73 -119l-397 -236z" />
<glyph unicode="&#xdf;" d="M119 0v1032q0 326 217 451q96 55 209 55q178 0 300 -126t122 -304q0 -205 -172 -311q117 -51 176 -111q104 -104 104 -274q0 -184 -125 -311.5t-307 -127.5q-125 0 -226.5 65.5t-150.5 178.5l-2 -217h-145zM272 418h101v-21q0 -111 83 -194.5t191 -83.5q117 0 195 86 t78 203q0 111 -75 189.5t-186 92.5q-63 8 -204 8v138h8q152 0 244 63q106 72 106 217q0 115 -77 196t-191 81q-143 0 -213 -111q-59 -92 -60 -244v-620z" />
<glyph unicode="&#xe0;" horiz-adv-x="1398" d="M86 557q0 252 179 420t433 168q279 0 424 -232v207h148v-1120h-148v205q-154 -231 -420 -232q-258 0 -434 162q-182 166 -182 422zM240 559q0 -184 130 -311t314 -127t311 127t127 311t-124 311t-306 127q-188 0 -320 -126t-132 -312zM442 1499l66 123l405 -221l-65 -121 z" />
<glyph unicode="&#xe1;" horiz-adv-x="1398" d="M86 557q0 252 179 420t433 168q279 0 424 -232v207h148v-1120h-148v205q-154 -231 -420 -232q-258 0 -434 162q-182 166 -182 422zM240 559q0 -184 130 -311t314 -127t311 127t127 311t-124 311t-306 127q-188 0 -320 -126t-132 -312zM444 1399l396 237l73 -118 l-397 -236z" />
<glyph unicode="&#xe2;" horiz-adv-x="1398" d="M86 557q0 252 179 420t433 168q279 0 424 -232v207h148v-1120h-148v205q-154 -231 -420 -232q-258 0 -434 162q-182 166 -182 422zM240 559q0 -184 130 -311t314 -127t311 127t127 311t-124 311t-306 127q-188 0 -320 -126t-132 -312zM313 1280l299 260h131l299 -260 h-188l-176 150l-178 -150h-187z" />
<glyph unicode="&#xe3;" horiz-adv-x="1398" d="M86 557q0 252 179 420t433 168q279 0 424 -232v207h148v-1120h-148v205q-154 -231 -420 -232q-258 0 -434 162q-182 166 -182 422zM240 559q0 -184 130 -311t314 -127t311 127t127 311t-124 311t-306 127q-188 0 -320 -126t-132 -312zM381 1405q88 86 180 86q49 0 88 -21 l82 -43q39 -20 76 -20q35 0 106 53l62 -98q-84 -82 -180 -82q-25 0 -43 8l-148 66q-18 8 -43 8q-59 0 -121 -59z" />
<glyph unicode="&#xe4;" horiz-adv-x="1398" d="M86 557q0 252 179 420t433 168q279 0 424 -232v207h148v-1120h-148v205q-154 -231 -420 -232q-258 0 -434 162q-182 166 -182 422zM240 559q0 -184 130 -311t314 -127t311 127t127 311t-124 311t-306 127q-188 0 -320 -126t-132 -312zM451 1280v260h155v-260h-155z M754 1280v260h153v-260h-153z" />
<glyph unicode="&#xe5;" horiz-adv-x="1398" d="M86 557q0 252 179 420t433 168q279 0 424 -232v207h148v-1120h-148v205q-154 -231 -420 -232q-258 0 -434 162q-182 166 -182 422zM240 559q0 -184 130 -311t314 -127t311 127t127 311t-124 311t-306 127q-188 0 -320 -126t-132 -312zM489 1470q0 78 55.5 134.5 t133.5 56.5q80 0 135 -55.5t55 -135.5t-55 -134t-135 -54q-78 0 -133.5 55.5t-55.5 132.5zM567 1473q0 -47 33 -80t80 -33t79 31.5t32 78.5q0 51 -33 82t-84 31q-45 0 -76 -32.5t-31 -77.5z" />
<glyph unicode="&#xe6;" horiz-adv-x="2369" d="M86 557q0 252 174 420t426 168q281 0 440 -209l2 209h146v-209q158 207 430 207q150 0 284 -75t214 -202q88 -141 88 -342v-22h-1008q18 -164 138 -273.5t286 -109.5q119 0 231 67q121 72 156 179h160q-55 -174 -209 -283t-338 -109q-221 0 -381 150q-27 25 -51 53v-203 h-146v203q-184 -205 -440 -205q-252 0 -427 168t-175 418zM240 555q0 -186 130 -311t316 -125q188 0 314 126t126 316t-127 313t-317 123t-316 -126t-126 -316zM1286 641h840q-20 156 -140 256t-280 100q-158 0 -276.5 -100t-143.5 -256z" />
<glyph unicode="&#xe7;" horiz-adv-x="1325" d="M86 559q0 250 177 418t429 168q184 0 334 -96q158 -101 219 -269h-172q-129 217 -385 217q-188 0 -318 -124.5t-130 -313.5q0 -186 130 -314t318 -128q233 0 385 211h170q-70 -166 -218 -260.5t-331 -94.5h-32l-37 -88q35 12 61 13q72 0 116 -46.5t44 -117.5 q0 -80 -52.5 -135.5t-131.5 -55.5q-143 0 -181 150l92 8q25 -66 97 -66q37 0 61.5 28t24.5 65q0 41 -29 69.5t-70 28.5q-45 0 -82 -45l-63 35l74 168q-221 39 -360.5 195.5t-139.5 379.5z" />
<glyph unicode="&#xe8;" horiz-adv-x="1331" d="M84 561q0 248 169 416t417 168q184 0 338.5 -109.5t210.5 -283.5q28 -90 32 -246h-1011q10 -164 135 -275.5t291 -111.5q123 0 234.5 67.5t158.5 178.5h162q-68 -176 -217.5 -284t-335.5 -108q-246 0 -415 171t-169 417zM240 643h858q-41 158 -156 256t-274 98 q-162 0 -277 -97t-151 -257zM434 1499l66 123l405 -221l-65 -121z" />
<glyph unicode="&#xe9;" horiz-adv-x="1331" d="M84 561q0 248 169 416t417 168q184 0 338.5 -109.5t210.5 -283.5q28 -90 32 -246h-1011q10 -164 135 -275.5t291 -111.5q123 0 234.5 67.5t158.5 178.5h162q-68 -176 -217.5 -284t-335.5 -108q-246 0 -415 171t-169 417zM240 643h858q-41 158 -156 256t-274 98 q-162 0 -277 -97t-151 -257zM436 1399l395 237l74 -118l-397 -236z" />
<glyph unicode="&#xea;" horiz-adv-x="1331" d="M84 561q0 248 169 416t417 168q184 0 338.5 -109.5t210.5 -283.5q28 -90 32 -246h-1011q10 -164 135 -275.5t291 -111.5q123 0 234.5 67.5t158.5 178.5h162q-68 -176 -217.5 -284t-335.5 -108q-246 0 -415 171t-169 417zM240 643h858q-41 158 -156 256t-274 98 q-162 0 -277 -97t-151 -257zM305 1280l299 260h131l299 -260h-188l-176 150l-178 -150h-187z" />
<glyph unicode="&#xeb;" horiz-adv-x="1331" d="M84 561q0 248 169 416t417 168q184 0 338.5 -109.5t210.5 -283.5q28 -90 32 -246h-1011q10 -164 135 -275.5t291 -111.5q123 0 234.5 67.5t158.5 178.5h162q-68 -176 -217.5 -284t-335.5 -108q-246 0 -415 171t-169 417zM240 643h858q-41 158 -156 256t-274 98 q-162 0 -277 -97t-151 -257zM442 1280v260h156v-260h-156zM745 1280v260h154v-260h-154z" />
<glyph unicode="&#xec;" horiz-adv-x="409" d="M127 0v1120h156v-1120h-156zM127 1477l66 122l405 -221l-66 -121z" />
<glyph unicode="&#xed;" horiz-adv-x="409" d="M-31 1374l396 238l73 -119l-397 -236zM127 0v1120h156v-1120h-156z" />
<glyph unicode="&#xee;" horiz-adv-x="409" d="M-150 1223l300 260h131l299 -260h-189l-176 149l-178 -149h-187zM127 0v1120h156v-1120h-156z" />
<glyph unicode="&#xef;" horiz-adv-x="409" d="M-25 1255v261h156v-261h-156zM127 0v1120h156v-1120h-156zM279 1255v261h153v-261h-153z" />
<glyph unicode="&#xf0;" horiz-adv-x="1341" d="M86 557q0 250 170 419t420 169q152 0 297 -96l24 -17q-96 154 -321 309l-219 -77l-131 53l235 82q-104 53 -282 110l2 7h204q88 0 205 -64l289 102l117 -59l-293 -102q213 -131 332.5 -342t119.5 -459q0 -268 -153 -438q-160 -180 -424 -181q-248 0 -420 168t-172 416z M242 571q0 -193 118.5 -322.5t311.5 -129.5q184 0 307 128t123 314q0 184 -123 310t-305 126q-176 0 -304 -124.5t-128 -301.5z" />
<glyph unicode="&#xf1;" horiz-adv-x="1249" d="M129 0v1120h145v-159q133 184 347 184q221 0 360 -144.5t139 -367.5v-633h-153v618q0 166 -92.5 272.5t-256.5 106.5q-201 0 -292 -159q-43 -76 -43 -205v-633h-154zM328 1405q88 86 180 86q49 0 88 -21l82 -43q39 -20 76 -20q35 0 106 53l62 -98q-84 -82 -181 -82 q-25 0 -43 8l-147 66q-18 8 -43 8q-59 0 -121 -59z" />
<glyph unicode="&#xf2;" horiz-adv-x="1341" d="M86 557q0 244 170 416t414 172t414.5 -172t170.5 -416q0 -246 -171 -415t-416 -169q-244 0 -413 170t-169 414zM240 555q0 -182 124.5 -309t307.5 -127q184 0 308 130t124 314q0 186 -124 310t-310 124q-182 0 -306 -130t-124 -312zM434 1499l66 123l405 -221l-65 -121z " />
<glyph unicode="&#xf3;" horiz-adv-x="1341" d="M86 557q0 244 170 416t414 172t414.5 -172t170.5 -416q0 -246 -171 -415t-416 -169q-244 0 -413 170t-169 414zM240 555q0 -182 124.5 -309t307.5 -127q184 0 308 130t124 314q0 186 -124 310t-310 124q-182 0 -306 -130t-124 -312zM438 1399l396 237l73 -118l-397 -236z " />
<glyph unicode="&#xf4;" horiz-adv-x="1341" d="M86 557q0 244 170 416t414 172t414.5 -172t170.5 -416q0 -246 -171 -415t-416 -169q-244 0 -413 170t-169 414zM240 555q0 -182 124.5 -309t307.5 -127q184 0 308 130t124 314q0 186 -124 310t-310 124q-182 0 -306 -130t-124 -312zM307 1280l299 260h131l299 -260h-188 l-176 150l-178 -150h-187z" />
<glyph unicode="&#xf5;" horiz-adv-x="1341" d="M86 557q0 244 170 416t414 172t414.5 -172t170.5 -416q0 -246 -171 -415t-416 -169q-244 0 -413 170t-169 414zM240 555q0 -182 124.5 -309t307.5 -127q184 0 308 130t124 314q0 186 -124 310t-310 124q-182 0 -306 -130t-124 -312zM373 1405q88 86 180 86q49 0 88 -21 l82 -43q39 -20 76 -20q35 0 106 53l62 -98q-84 -82 -181 -82q-25 0 -43 8l-147 66q-18 8 -43 8q-59 0 -121 -59z" />
<glyph unicode="&#xf6;" horiz-adv-x="1341" d="M86 557q0 244 170 416t414 172t414.5 -172t170.5 -416q0 -246 -171 -415t-416 -169q-244 0 -413 170t-169 414zM240 555q0 -182 124.5 -309t307.5 -127q184 0 308 130t124 314q0 186 -124 310t-310 124q-182 0 -306 -130t-124 -312zM444 1280v260h156v-260h-156z M748 1280v260h153v-260h-153z" />
<glyph unicode="&#xf7;" horiz-adv-x="1241" d="M104 539v157h1033v-157h-1033zM543 100v158h157v-158h-157zM543 977v156h157v-156h-157z" />
<glyph unicode="&#xf8;" horiz-adv-x="1337" d="M84 563q2 244 175 414t417 170q96 0 154.5 -17.5t138.5 -68.5l116 156l113 -84l-121 -156q176 -176 176 -416q0 -244 -171 -416t-414 -172q-92 0 -149.5 16.5t-141.5 65.5l-113 -147l-106 84l110 143q-186 176 -184 428zM238 563q0 -188 118 -307l525 682 q-102 59 -209 59q-184 0 -309 -124.5t-125 -309.5zM467 170q102 -51 201 -51q186 0 309 129t123 315q0 178 -111 291z" />
<glyph unicode="&#xf9;" horiz-adv-x="1245" d="M129 471v649h154v-641q0 -156 92 -258t246 -102q162 0 253 110q88 104 89 269v622h153v-1120h-145v168q-119 -195 -367 -195q-158 0 -289 97q-109 80 -149 174q-37 86 -37 227zM387 1477l66 122l405 -221l-65 -121z" />
<glyph unicode="&#xfa;" horiz-adv-x="1245" d="M129 471v649h154v-641q0 -156 92 -258t246 -102q147 0 244.5 99t97.5 249v653h153v-1120h-145v168q-74 -109 -158 -152t-217 -43q-127 0 -251 76t-177 189q-39 84 -39 233zM389 1374l395 238l74 -119l-397 -236z" />
<glyph unicode="&#xfb;" horiz-adv-x="1245" d="M129 471v649h154v-641q0 -156 92 -258t246 -102q162 0 253 110q88 104 89 269v622h153v-1120h-145v168q-119 -195 -367 -195q-158 0 -289 97q-109 80 -149 174q-37 86 -37 227zM258 1255l299 261h131l299 -261h-188l-176 150l-179 -150h-186z" />
<glyph unicode="&#xfc;" horiz-adv-x="1245" d="M129 471v649h154v-641q0 -156 92 -258t246 -102q162 0 253 110q88 104 89 269v622h153v-1120h-145v168q-119 -195 -367 -195q-158 0 -289 97q-109 80 -149 174q-37 86 -37 227zM395 1255v261h156v-261h-156zM698 1255v261h154v-261h-154z" />
<glyph unicode="&#xfd;" horiz-adv-x="1097" d="M16 1120h164l359 -889l376 889h164l-645 -1513h-164l179 430zM300 1378l395 238l73 -119l-397 -236z" />
<glyph unicode="&#xfe;" horiz-adv-x="1396" d="M129 -393v1906h145v-581q70 102 197 160q117 53 248 53q211 0 391 -152q201 -168 201 -426t-172 -426t-430 -168q-299 0 -426 236v-602h-154zM272 557q0 -188 126 -313t317 -125q186 0 314 125t128 311q0 188 -128 315t-318 127q-188 0 -313.5 -124.5t-125.5 -315.5z" />
<glyph unicode="&#xff;" horiz-adv-x="1097" d="M16 1120h164l359 -889l376 889h164l-645 -1513h-164l179 430zM322 1255v261h155v-261h-155zM625 1255v261h153v-261h-153z" />
<glyph unicode="&#x152;" horiz-adv-x="2445" d="M90 756q0 336 228.5 559t566.5 223q401 0 645 -307v282h801v-139h-648v-545h625v-139h-625v-551h648v-139h-801v289q-236 -315 -639 -316q-338 0 -569.5 222.5t-231.5 560.5zM246 758q0 -272 183 -456.5t456 -184.5q270 0 457.5 186.5t187.5 456.5q0 266 -187.5 450.5 t-453.5 184.5q-272 0 -457.5 -182.5t-185.5 -454.5z" />
<glyph unicode="&#x153;" horiz-adv-x="2328" d="M86 563q0 242 169 412t411 170q313 0 512 -301q61 106 127 164q154 137 370 137q258 0 418 -180q156 -172 156 -433v-30h-996q14 -170 133 -277.5t291 -107.5q127 0 232.5 66.5t152.5 181.5h156q-53 -176 -204.5 -284t-338.5 -108q-160 0 -293 80q-139 82 -206 223 q-82 -141 -216.5 -222t-293.5 -81q-244 0 -412 173t-168 417zM240 575q0 -193 120.5 -324.5t311.5 -131.5q180 0 304 126t124 308t-124 313t-304 131q-174 0 -303 -123.5t-129 -298.5zM1255 639h840q-27 156 -144.5 257t-275.5 101q-160 0 -271.5 -99t-148.5 -259z" />
<glyph unicode="&#x178;" horiz-adv-x="1212" d="M4 1513h168l434 -847l436 847h166l-524 -1007v-506h-154v506zM379 1649v260h156v-260h-156zM682 1649v260h154v-260h-154z" />
<glyph unicode="&#x2c6;" horiz-adv-x="1028" d="M150 1253l299 260h131l299 -260h-189l-176 150l-178 -150h-186z" />
<glyph unicode="&#x2dc;" horiz-adv-x="899" d="M154 1378q88 86 180 86q49 0 88 -20l82 -43q39 -20 76 -21q35 0 106 54l62 -99q-84 -82 -181 -82q-25 0 -43 9l-147 65q-18 8 -43 8q-59 0 -121 -59z" />
<glyph unicode="&#x2000;" horiz-adv-x="1014" />
<glyph unicode="&#x2001;" horiz-adv-x="2028" />
<glyph unicode="&#x2002;" horiz-adv-x="1014" />
<glyph unicode="&#x2003;" horiz-adv-x="2028" />
<glyph unicode="&#x2004;" horiz-adv-x="676" />
<glyph unicode="&#x2005;" horiz-adv-x="507" />
<glyph unicode="&#x2006;" horiz-adv-x="338" />
<glyph unicode="&#x2007;" horiz-adv-x="338" />
<glyph unicode="&#x2008;" horiz-adv-x="253" />
<glyph unicode="&#x2009;" horiz-adv-x="405" />
<glyph unicode="&#x200a;" horiz-adv-x="112" />
<glyph unicode="&#x2010;" horiz-adv-x="679" d="M61 547v137h557v-137h-557z" />
<glyph unicode="&#x2011;" horiz-adv-x="679" d="M61 547v137h557v-137h-557z" />
<glyph unicode="&#x2012;" horiz-adv-x="679" d="M61 547v137h557v-137h-557z" />
<glyph unicode="&#x2013;" horiz-adv-x="1024" d="M-2 547v137h1026v-137h-1026z" />
<glyph unicode="&#x2014;" horiz-adv-x="2048" d="M0 547v137h2048v-137h-2048z" />
<glyph unicode="&#x2018;" horiz-adv-x="718" d="M199 1513h155l178 -397h-153z" />
<glyph unicode="&#x2019;" horiz-adv-x="718" d="M184 1116l181 397h155l-180 -397h-156z" />
<glyph unicode="&#x201a;" horiz-adv-x="724" d="M180 -137l180 395h156l-182 -395h-154z" />
<glyph unicode="&#x201c;" horiz-adv-x="1028" d="M195 1513h155l180 -397h-153zM498 1513h153l180 -397h-153z" />
<glyph unicode="&#x201d;" horiz-adv-x="991" d="M178 1116l170 397h156l-180 -397h-146zM471 1116l180 397h156l-180 -397h-156z" />
<glyph unicode="&#x201e;" horiz-adv-x="1028" d="M182 -137l180 395h154l-180 -395h-154zM483 -137l181 395h153l-178 -395h-156z" />
<glyph unicode="&#x2022;" horiz-adv-x="1241" d="M242 616q0 152 107.5 265.5t258.5 113.5q166 0 279.5 -107.5t113.5 -271.5q0 -158 -110.5 -268t-269.5 -110q-160 0 -269.5 109.5t-109.5 268.5z" />
<glyph unicode="&#x2026;" horiz-adv-x="2048" d="M266 0v258h154v-258h-154zM948 0v258h154v-258h-154zM1628 0v258h154v-258h-154z" />
<glyph unicode="&#x202f;" horiz-adv-x="405" />
<glyph unicode="&#x2039;" horiz-adv-x="514" d="M84 610l227 414l121 -63l-190 -334l190 -355l-121 -65z" />
<glyph unicode="&#x203a;" horiz-adv-x="514" d="M82 272l188 346l-188 343l121 63l229 -408l-229 -409z" />
<glyph unicode="&#x205f;" horiz-adv-x="507" />
<glyph unicode="&#x2122;" horiz-adv-x="2048" d="M129 1389v124h700v-124h-272v-740h-154v740h-274zM977 649v864h223l248 -606l254 606h219v-864h-137v733l-295 -733h-84l-287 735v-735h-141z" />
<glyph unicode="&#x25fc;" horiz-adv-x="1116" d="M0 0v1116h1116v-1116h-1116z" />
</font>
</defs>
</svg>
